<svg width="500" height="500" viewBox="0 0 500 500" fill="none" xmlns="http://www.w3.org/2000/svg">
<path d="M123.479 340.571C123.479 352.714 126.449 361.643 132.39 367.357C142.846 377.357 153.896 382.357 165.54 382.357H299.394C308.187 382.357 314.959 384.738 319.712 389.5C327.791 397.595 331.831 404.976 331.831 411.643C331.831 418.31 330.999 423.667 329.336 427.714C327.673 431.524 325.415 434.857 322.563 437.714C315.91 443.905 308.187 447 299.394 447H144.51C115.518 447 90.6855 436.643 70.0113 415.929C49.3371 395.214 39 370.333 39 341.286L39 94.2619C39 82.3571 41.9704 73.4285 47.9113 67.4762C58.1296 57.2381 69.1796 52.119 81.0613 52.119C93.1806 52.119 102.211 55.0952 108.152 61.0476C118.37 71.2857 123.479 82.3571 123.479 94.2619V340.571Z" fill="white"/>
<path d="M430.384 52C436.325 52 442.147 52.8333 447.85 54.5C453.553 56.1667 458.9 58.7857 463.89 62.3571C475.297 70.6905 481 82.2381 481 97C481 108.905 477.911 117.833 471.732 123.786C461.039 134.024 451.058 139.143 441.79 139.143C429.909 139.143 419.096 135.333 409.353 127.714C401.749 122.714 393.194 120.214 383.689 120.214C374.183 120.214 366.698 123.31 361.232 129.5C355.767 135.452 353.034 143.071 353.034 152.357V404.857C353.034 416.286 350.063 425.095 344.123 431.286C333.429 441.762 309.086 446.989 300.293 446.989C291.739 446.989 299.447 445.81 294.219 443.429C289.229 441.286 284.833 438.31 281.031 434.5C272.713 426.167 268.555 416.286 268.555 404.857V94.8572C268.555 83.1905 271.644 74.1429 277.823 67.7143C287.803 57.2381 297.309 52 306.339 52C315.606 52 322.498 53.0714 327.013 55.2143C331.528 57.119 335.33 59.381 338.419 62C342.697 65.8095 345.786 69.7381 347.687 73.7857C349.588 77.5952 351.133 80.4524 352.321 82.3572C353.747 84.2619 355.885 85.2143 358.737 85.2143C361.826 85.2143 364.322 84.2619 366.223 82.3572L372.639 76.2857C391.174 60.0953 410.423 52 430.384 52Z" fill="white"/>
<ellipse cx="437" cy="403.5" rx="44" ry="43.5" fill="white"/>
</svg>
