<svg width="500" height="500" viewBox="0 0 500 500" fill="none" xmlns="http://www.w3.org/2000/svg">
<g clip-path="url(#clip0_5_172)">
<path d="M200.374 294L462 294L299.769 435L37 435L200.374 294Z" fill="#4A4A4A" fill-opacity="0.25"/>
<path d="M199 64H462V293.5L199 294V64Z" fill="white" fill-opacity="0.25"/>
<path d="M212.984 183.48V375H193.4V183.48H212.984ZM307.727 252.312C303.311 250.392 298.895 249.432 294.479 249.432C285.455 249.432 277.679 252.696 271.151 259.224C264.623 265.752 261.359 273.528 261.359 282.552V375H241.775V282.552C241.775 272.184 244.463 262.776 249.839 254.328C255.407 245.688 262.607 239.256 271.439 235.032L272.015 234.744C279.119 231.48 286.607 229.848 294.479 229.848C306.767 229.848 317.711 233.592 327.311 241.08L307.727 252.312Z" fill="white"/>
<rect x="37" y="205" width="263" height="231" fill="white" fill-opacity="0.25"/>
<path d="M300 204.69L462 64V294.31L300 435V204.69Z" fill="#666666" fill-opacity="0.25"/>
<path d="M200.374 64.5L462 64.5L299.769 205.5L37 205.5L200.374 64.5Z" fill="#B3B3B3" fill-opacity="0.75"/>
<path d="M199.374 294L461 294L298.769 435L36 435L199.374 294Z" fill="#4A4A4A" fill-opacity="0.25"/>
<path d="M198 64H461V293.5L198 294V64Z" fill="white" fill-opacity="0.25"/>
<path d="M211.984 183.48V375H192.4V183.48H211.984ZM306.727 252.312C302.311 250.392 297.895 249.432 293.479 249.432C284.455 249.432 276.679 252.696 270.151 259.224C263.623 265.752 260.359 273.528 260.359 282.552V375H240.775V282.552C240.775 272.184 243.463 262.776 248.839 254.328C254.407 245.688 261.607 239.256 270.439 235.032L271.015 234.744C278.119 231.48 285.607 229.848 293.479 229.848C305.767 229.848 316.711 233.592 326.311 241.08L306.727 252.312Z" fill="white"/>
<rect x="36" y="205" width="263" height="231" fill="white" fill-opacity="0.25"/>
<path d="M299 204.69L461 64V294.31L299 435V204.69Z" fill="#666666" fill-opacity="0.25"/>
<path d="M199.374 64.5L461 64.5L298.769 205.5L36 205.5L199.374 64.5Z" fill="#B3B3B3" fill-opacity="0.75"/>
<path d="M199.374 294L461 294L298.769 435L36 435L199.374 294Z" fill="#4A4A4A" fill-opacity="0.25"/>
<path d="M198 64H461V293.5L198 294V64Z" fill="white" fill-opacity="0.25"/>
<path d="M211.984 183.48V375H192.4V183.48H211.984ZM306.727 252.312C302.311 250.392 297.895 249.432 293.479 249.432C284.455 249.432 276.679 252.696 270.151 259.224C263.623 265.752 260.359 273.528 260.359 282.552V375H240.775V282.552C240.775 272.184 243.463 262.776 248.839 254.328C254.407 245.688 261.607 239.256 270.439 235.032L271.015 234.744C278.119 231.48 285.607 229.848 293.479 229.848C305.767 229.848 316.711 233.592 326.311 241.08L306.727 252.312Z" fill="white"/>
<rect x="36" y="205" width="263" height="231" fill="white" fill-opacity="0.25"/>
<path d="M299 204.69L461 64V294.31L299 435V204.69Z" fill="#666666" fill-opacity="0.25"/>
<path d="M199.374 64.5L461 64.5L298.769 205.5L36 205.5L199.374 64.5Z" fill="#B3B3B3" fill-opacity="0.75"/>
</g>
<defs>
<clipPath id="clip0_5_172">
<rect width="500" height="500" fill="white"/>
</clipPath>
</defs>
</svg>
