<svg width="500" height="500" viewBox="0 0 500 500" fill="none" xmlns="http://www.w3.org/2000/svg">
<mask id="path-1-outside-1_9_241" maskUnits="userSpaceOnUse" x="11.0251" y="96.1938" width="486" height="348" fill="black">
<rect fill="white" x="11.0251" y="96.1938" width="486" height="348"/>
<path fill-rule="evenodd" clip-rule="evenodd" d="M242.336 111.48C239.427 113.573 236.634 115.957 233.959 118.633C230.896 121.695 228.215 124.911 225.916 128.28L265.75 168.114V163.564C265.75 156.923 268.576 150.424 274.227 144.065C274.336 143.943 274.447 143.822 274.559 143.703L242.336 111.48ZM315.134 151.057L317.675 148.516C318.805 147.244 319.37 145.973 319.37 144.701C319.37 143.43 318.876 142.087 317.887 140.674C317.039 139.12 315.273 138.343 312.588 138.343H302.42L265.483 101.406C269.577 100.598 273.834 100.194 278.254 100.194H297.491L351.287 153.99C350.214 156.859 349.678 159.98 349.678 163.352V185.601L315.134 151.057ZM301.76 170.904C300.219 175.498 299.448 180.399 299.448 185.606V201.812L370.56 272.925H374.687C381.751 272.925 388.251 276.033 394.185 282.25C397.717 285.924 399.484 291.222 399.484 298.145C399.484 299.393 399.491 300.635 399.507 301.871L458.926 361.29C454.187 349.042 451.319 335.101 450.323 319.467L365.632 234.775H349.678V218.822L301.76 170.904ZM391.726 227.649L447.647 283.57C443.529 269.743 433.833 259.836 418.558 253.85C426.008 249.95 432.122 245.201 436.9 239.603L399.484 202.187V209.343C399.484 215.915 396.898 222.017 391.726 227.649ZM399.484 168.966L447.963 217.446C449.2 212.193 449.783 206.525 449.713 200.441L449.631 185.893L363.932 100.194H330.711L369.459 138.942C370.992 138.684 372.593 138.555 374.263 138.555C381.61 138.414 388.251 141.522 394.185 147.88C397.717 151.554 399.484 156.782 399.484 163.564V168.966ZM397.847 100.889L448.609 151.651C446.548 139.07 440.91 128.064 431.698 118.633C422.02 108.727 410.737 102.812 397.847 100.889ZM492.661 428.245L402.447 338.031C405.144 355.108 409.681 370.719 416.06 384.865L471.623 440.428C472.646 440.522 473.68 440.569 474.722 440.569C479.667 440.569 484.683 437.884 489.77 432.515C490.962 431.269 491.926 429.845 492.661 428.245ZM349.678 318.483V285.262L299.448 235.033V268.253L349.678 318.483ZM299.448 301.473L349.678 351.703V367.45C349.678 372.801 348.432 377.38 345.941 381.187L299.448 334.694V301.473ZM228.988 197.793L218.07 186.875C216.37 183.506 215.52 179.763 215.52 175.644V162.928C215.52 159.162 215.813 155.514 216.4 151.985L258.195 193.78C256.024 195.672 253.385 197.257 250.278 198.534C247.17 199.805 243.849 200.441 240.317 200.441C236.926 200.441 233.676 199.805 230.568 198.534C230.03 198.303 229.503 198.056 228.988 197.793ZM164.946 133.751L131.389 100.194H152.362C160.698 100.194 166.562 104.079 169.953 111.851C170.942 114.253 171.437 117.432 171.437 121.388C171.437 125.344 169.6 129.159 165.926 132.833C165.606 133.153 165.279 133.459 164.946 133.751ZM101.378 103.403L136.318 138.343H134.135C127.071 138.343 121.701 140.109 118.028 143.641C116.341 145.367 114.889 147.125 113.671 148.916L80.4648 115.711C86.8704 110.071 93.8414 105.968 101.378 103.403ZM65.6077 134.074C61.3602 142.033 59.0671 150.813 58.7287 160.415L108.914 210.601V177.381L65.6077 134.074ZM299.452 367.918C299.561 374.635 302.033 380.272 306.866 384.829C309.127 387.089 311.811 388.856 314.92 390.127C317.75 391.414 320.698 392.115 323.764 392.23L299.452 367.918ZM108.914 243.821L58.6847 193.592V226.812L108.914 277.042V243.821ZM168.331 336.459C170.119 333.241 171.013 330.219 171.013 327.393C171.013 322.307 171.649 318.28 172.92 315.313C173.655 313.599 174.554 312.003 175.618 310.525L215.792 350.699C212.576 357.977 208.247 364.338 202.804 369.781C202.612 369.973 202.419 370.164 202.225 370.353L168.331 336.459ZM108.422 309.77L58.6847 260.033V293.253L97.8642 332.432C103.676 325.553 107.195 317.998 108.422 309.77ZM115.502 350.071H148.123C148.323 350.071 148.521 350.069 148.717 350.065L182.335 383.683C175.001 386.707 167.059 388.22 158.508 388.22H153.652L115.502 350.071ZM120.431 388.22L58.6826 326.471C58.6012 333.098 56.1999 338.633 51.4788 343.077C49.8596 344.595 48.0231 345.895 45.9691 346.978L87.2107 388.22H120.431ZM53.9903 388.22L20.8351 355.065C20.6638 355.233 20.4934 355.405 20.3236 355.581C16.7913 359.255 15.0251 363.776 15.0251 369.145C15.0251 374.373 17.4271 379.318 22.2311 383.981C24.9157 386.807 28.7306 388.22 33.6758 388.22H53.9903ZM221.043 322.73L198.817 300.504C201.677 300.795 204.066 301.351 205.983 302.172C209.091 303.444 211.776 305.21 214.036 307.471C218.042 311.477 220.378 316.563 221.043 322.73Z"/>
</mask>
<path fill-rule="evenodd" clip-rule="evenodd" d="M242.336 111.48C239.427 113.573 236.634 115.957 233.959 118.633C230.896 121.695 228.215 124.911 225.916 128.28L265.75 168.114V163.564C265.75 156.923 268.576 150.424 274.227 144.065C274.336 143.943 274.447 143.822 274.559 143.703L242.336 111.48ZM315.134 151.057L317.675 148.516C318.805 147.244 319.37 145.973 319.37 144.701C319.37 143.43 318.876 142.087 317.887 140.674C317.039 139.12 315.273 138.343 312.588 138.343H302.42L265.483 101.406C269.577 100.598 273.834 100.194 278.254 100.194H297.491L351.287 153.99C350.214 156.859 349.678 159.98 349.678 163.352V185.601L315.134 151.057ZM301.76 170.904C300.219 175.498 299.448 180.399 299.448 185.606V201.812L370.56 272.925H374.687C381.751 272.925 388.251 276.033 394.185 282.25C397.717 285.924 399.484 291.222 399.484 298.145C399.484 299.393 399.491 300.635 399.507 301.871L458.926 361.29C454.187 349.042 451.319 335.101 450.323 319.467L365.632 234.775H349.678V218.822L301.76 170.904ZM391.726 227.649L447.647 283.57C443.529 269.743 433.833 259.836 418.558 253.85C426.008 249.95 432.122 245.201 436.9 239.603L399.484 202.187V209.343C399.484 215.915 396.898 222.017 391.726 227.649ZM399.484 168.966L447.963 217.446C449.2 212.193 449.783 206.525 449.713 200.441L449.631 185.893L363.932 100.194H330.711L369.459 138.942C370.992 138.684 372.593 138.555 374.263 138.555C381.61 138.414 388.251 141.522 394.185 147.88C397.717 151.554 399.484 156.782 399.484 163.564V168.966ZM397.847 100.889L448.609 151.651C446.548 139.07 440.91 128.064 431.698 118.633C422.02 108.727 410.737 102.812 397.847 100.889ZM492.661 428.245L402.447 338.031C405.144 355.108 409.681 370.719 416.06 384.865L471.623 440.428C472.646 440.522 473.68 440.569 474.722 440.569C479.667 440.569 484.683 437.884 489.77 432.515C490.962 431.269 491.926 429.845 492.661 428.245ZM349.678 318.483V285.262L299.448 235.033V268.253L349.678 318.483ZM299.448 301.473L349.678 351.703V367.45C349.678 372.801 348.432 377.38 345.941 381.187L299.448 334.694V301.473ZM228.988 197.793L218.07 186.875C216.37 183.506 215.52 179.763 215.52 175.644V162.928C215.52 159.162 215.813 155.514 216.4 151.985L258.195 193.78C256.024 195.672 253.385 197.257 250.278 198.534C247.17 199.805 243.849 200.441 240.317 200.441C236.926 200.441 233.676 199.805 230.568 198.534C230.03 198.303 229.503 198.056 228.988 197.793ZM164.946 133.751L131.389 100.194H152.362C160.698 100.194 166.562 104.079 169.953 111.851C170.942 114.253 171.437 117.432 171.437 121.388C171.437 125.344 169.6 129.159 165.926 132.833C165.606 133.153 165.279 133.459 164.946 133.751ZM101.378 103.403L136.318 138.343H134.135C127.071 138.343 121.701 140.109 118.028 143.641C116.341 145.367 114.889 147.125 113.671 148.916L80.4648 115.711C86.8704 110.071 93.8414 105.968 101.378 103.403ZM65.6077 134.074C61.3602 142.033 59.0671 150.813 58.7287 160.415L108.914 210.601V177.381L65.6077 134.074ZM299.452 367.918C299.561 374.635 302.033 380.272 306.866 384.829C309.127 387.089 311.811 388.856 314.92 390.127C317.75 391.414 320.698 392.115 323.764 392.23L299.452 367.918ZM108.914 243.821L58.6847 193.592V226.812L108.914 277.042V243.821ZM168.331 336.459C170.119 333.241 171.013 330.219 171.013 327.393C171.013 322.307 171.649 318.28 172.92 315.313C173.655 313.599 174.554 312.003 175.618 310.525L215.792 350.699C212.576 357.977 208.247 364.338 202.804 369.781C202.612 369.973 202.419 370.164 202.225 370.353L168.331 336.459ZM108.422 309.77L58.6847 260.033V293.253L97.8642 332.432C103.676 325.553 107.195 317.998 108.422 309.77ZM115.502 350.071H148.123C148.323 350.071 148.521 350.069 148.717 350.065L182.335 383.683C175.001 386.707 167.059 388.22 158.508 388.22H153.652L115.502 350.071ZM120.431 388.22L58.6826 326.471C58.6012 333.098 56.1999 338.633 51.4788 343.077C49.8596 344.595 48.0231 345.895 45.9691 346.978L87.2107 388.22H120.431ZM53.9903 388.22L20.8351 355.065C20.6638 355.233 20.4934 355.405 20.3236 355.581C16.7913 359.255 15.0251 363.776 15.0251 369.145C15.0251 374.373 17.4271 379.318 22.2311 383.981C24.9157 386.807 28.7306 388.22 33.6758 388.22H53.9903ZM221.043 322.73L198.817 300.504C201.677 300.795 204.066 301.351 205.983 302.172C209.091 303.444 211.776 305.21 214.036 307.471C218.042 311.477 220.378 316.563 221.043 322.73Z" fill="#CFCFCF"/>
<path d="M233.959 118.633L231.827 116.501V116.501L233.959 118.633ZM242.336 111.48L244.468 109.349L242.656 107.537L240.576 109.033L242.336 111.48ZM225.916 128.28L223.426 126.581L222.018 128.645L223.785 130.412L225.916 128.28ZM265.75 168.114L263.618 170.245L268.764 175.391V168.114H265.75ZM274.227 144.065L271.974 142.063L271.974 142.063L274.227 144.065ZM274.559 143.703L276.752 145.771L278.76 143.641L276.691 141.571L274.559 143.703ZM315.134 151.057L313.002 148.926L310.871 151.057L313.002 153.189L315.134 151.057ZM317.675 148.516L319.806 150.647L319.869 150.585L319.928 150.519L317.675 148.516ZM317.887 140.674L315.241 142.118L315.321 142.265L315.417 142.403L317.887 140.674ZM302.42 138.343L300.288 140.474L301.171 141.357H302.42V138.343ZM265.483 101.406L264.899 98.4488L259.357 99.5426L263.351 103.537L265.483 101.406ZM297.491 100.194L299.622 98.0624L298.739 97.1796H297.491V100.194ZM351.287 153.99L354.11 155.045L354.789 153.229L353.418 151.858L351.287 153.99ZM349.678 185.601L347.546 187.733L352.692 192.878V185.601H349.678ZM301.76 170.904L303.892 168.773L300.45 165.331L298.902 169.945L301.76 170.904ZM299.448 201.812H296.434V203.061L297.317 203.944L299.448 201.812ZM370.56 272.925L368.429 275.056L369.312 275.939H370.56V272.925ZM394.185 282.25L392.005 284.331L392.012 284.339L394.185 282.25ZM399.507 301.871L396.493 301.909L396.508 303.135L397.375 304.002L399.507 301.871ZM458.926 361.29L456.794 363.421L461.737 360.202L458.926 361.29ZM450.323 319.467L453.331 319.275L453.259 318.14L452.454 317.335L450.323 319.467ZM365.632 234.775L367.763 232.644L366.88 231.761H365.632V234.775ZM349.678 234.775H346.664V237.79H349.678V234.775ZM349.678 218.822H352.692V217.573L351.809 216.69L349.678 218.822ZM391.726 227.649L389.506 225.611L387.552 227.738L389.595 229.781L391.726 227.649ZM447.647 283.57L445.515 285.701L450.535 282.71L447.647 283.57ZM418.558 253.85L417.16 251.18L411.305 254.245L417.458 256.656L418.558 253.85ZM436.9 239.603L439.193 241.56L441.001 239.441L439.031 237.471L436.9 239.603ZM399.484 202.187L401.615 200.055L396.469 194.909V202.187H399.484ZM447.963 217.446L445.832 219.577L449.658 223.403L450.898 218.137L447.963 217.446ZM399.484 168.966H396.469V170.215L397.352 171.098L399.484 168.966ZM449.713 200.441L446.699 200.458L446.699 200.467L446.699 200.476L449.713 200.441ZM449.631 185.893L452.645 185.876L452.638 184.638L451.762 183.762L449.631 185.893ZM363.932 100.194L366.063 98.0624L365.18 97.1796H363.932V100.194ZM330.711 100.194V97.1796H323.434L328.58 102.325L330.711 100.194ZM369.459 138.942L367.328 141.073L368.427 142.172L369.959 141.914L369.459 138.942ZM374.263 138.555V141.569H374.292L374.321 141.569L374.263 138.555ZM394.185 147.88L391.982 149.937L391.997 149.953L392.012 149.969L394.185 147.88ZM448.609 151.651L446.478 153.782L453.098 160.403L451.584 151.164L448.609 151.651ZM397.847 100.889L398.292 97.9077L389.255 96.5592L395.716 103.02L397.847 100.889ZM431.698 118.633L433.855 116.526L433.854 116.526L431.698 118.633ZM492.661 428.245L495.4 429.504L496.276 427.597L494.792 426.114L492.661 428.245ZM402.447 338.031L404.578 335.9L398.023 329.345L399.469 338.501L402.447 338.031ZM416.06 384.865L413.312 386.104L413.539 386.606L413.928 386.996L416.06 384.865ZM471.623 440.428L469.491 442.559L470.262 443.329L471.346 443.429L471.623 440.428ZM489.77 432.515L487.592 430.432L487.587 430.437L487.582 430.442L489.77 432.515ZM349.678 285.262H352.692V284.014L351.809 283.131L349.678 285.262ZM349.678 318.483L347.546 320.614L352.692 325.76V318.483H349.678ZM299.448 235.033L301.579 232.901L296.434 227.756V235.033H299.448ZM299.448 268.253H296.434V269.501L297.317 270.384L299.448 268.253ZM349.678 351.703H352.692V350.455L351.809 349.572L349.678 351.703ZM299.448 301.473L301.579 299.342L296.434 294.196V301.473H299.448ZM345.941 381.187L343.81 383.318L346.433 385.941L348.464 382.837L345.941 381.187ZM299.448 334.694H296.434V335.942L297.317 336.825L299.448 334.694ZM218.07 186.875L215.379 188.233L215.597 188.664L215.939 189.006L218.07 186.875ZM228.988 197.793L226.857 199.925L227.193 200.261L227.617 200.477L228.988 197.793ZM216.4 151.985L218.531 149.853L214.387 145.709L213.427 151.49L216.4 151.985ZM258.195 193.78L260.176 196.052L262.609 193.931L260.327 191.649L258.195 193.78ZM250.278 198.534L251.419 201.324L251.424 201.322L250.278 198.534ZM230.568 198.534L229.38 201.304L229.403 201.314L229.426 201.324L230.568 198.534ZM131.389 100.194V97.1796H124.112L129.258 102.325L131.389 100.194ZM164.946 133.751L162.815 135.883L164.812 137.88L166.935 136.017L164.946 133.751ZM169.953 111.851L172.74 110.703L172.728 110.674L172.716 110.645L169.953 111.851ZM165.926 132.833L163.795 130.701L163.795 130.701L165.926 132.833ZM136.318 138.343V141.357H143.595L138.449 136.212L136.318 138.343ZM101.378 103.403L103.509 101.272L102.183 99.9453L100.407 100.55L101.378 103.403ZM118.028 143.641L115.939 141.469L115.905 141.501L115.872 141.535L118.028 143.641ZM113.671 148.916L111.539 151.048L114.114 153.623L116.163 150.612L113.671 148.916ZM80.4648 115.711L78.4729 113.448L76.0622 115.571L78.3334 117.842L80.4648 115.711ZM58.7287 160.415L55.7163 160.309L55.6701 161.619L56.5973 162.547L58.7287 160.415ZM65.6077 134.074L67.7391 131.942L64.8634 129.067L62.9485 132.655L65.6077 134.074ZM108.914 210.601L106.783 212.732L111.929 217.878V210.601H108.914ZM108.914 177.381H111.929V176.132L111.046 175.249L108.914 177.381ZM306.866 384.829L308.997 382.697L308.966 382.666L308.934 382.636L306.866 384.829ZM299.452 367.918L301.583 365.787L296.317 360.52L296.438 367.967L299.452 367.918ZM314.92 390.127L316.167 387.383L316.114 387.359L316.061 387.337L314.92 390.127ZM323.764 392.23L323.651 395.242L331.326 395.53L325.895 390.098L323.764 392.23ZM58.6847 193.592L60.8161 191.46L55.6705 186.315V193.592H58.6847ZM108.914 243.821H111.929V242.573L111.046 241.69L108.914 243.821ZM58.6847 226.812H55.6705V228.061L56.5533 228.943L58.6847 226.812ZM108.914 277.042L106.783 279.173L111.929 284.319V277.042H108.914ZM168.331 336.459L165.696 334.995L164.592 336.982L166.2 338.59L168.331 336.459ZM172.92 315.313L170.15 314.125L172.92 315.313ZM175.618 310.525L177.75 308.394L175.243 305.887L173.172 308.764L175.618 310.525ZM215.792 350.699L218.549 351.917L219.383 350.027L217.923 348.567L215.792 350.699ZM202.804 369.781L204.935 371.912L204.935 371.912L202.804 369.781ZM202.225 370.353L200.094 372.484L202.202 374.592L204.333 372.508L202.225 370.353ZM58.6847 260.033L60.8161 257.901L55.6705 252.755V260.033H58.6847ZM108.422 309.77L111.403 310.214L111.627 308.712L110.553 307.638L108.422 309.77ZM58.6847 293.253H55.6705V294.501L56.5533 295.384L58.6847 293.253ZM97.8642 332.432L95.7328 334.564L98.0511 336.882L100.167 334.378L97.8642 332.432ZM115.502 350.071V347.056H108.225L113.371 352.202L115.502 350.071ZM148.717 350.065L150.849 347.934L149.942 347.027L148.659 347.051L148.717 350.065ZM182.335 383.683L183.484 386.469L187.662 384.747L184.466 381.551L182.335 383.683ZM153.652 388.22L151.52 390.351L152.403 391.234H153.652V388.22ZM58.6826 326.471L60.814 324.34L55.7564 319.282L55.6685 326.434L58.6826 326.471ZM120.431 388.22V391.234H127.708L122.562 386.088L120.431 388.22ZM51.4788 343.077L53.5403 345.276L53.5446 345.272L51.4788 343.077ZM45.9691 346.978L44.5632 344.312L40.9469 346.219L43.8377 349.11L45.9691 346.978ZM87.2107 388.22L85.0793 390.351L85.9622 391.234H87.2107V388.22ZM20.8351 355.065L22.9665 352.933L20.8547 350.821L18.7234 352.914L20.8351 355.065ZM53.9903 388.22V391.234H61.2674L56.1217 386.088L53.9903 388.22ZM20.3236 355.581L18.1524 353.49L18.1509 353.492L20.3236 355.581ZM22.2311 383.981L24.4164 381.905L24.3743 381.861L24.3304 381.818L22.2311 383.981ZM221.043 322.73L218.912 324.861L224.958 330.907L224.04 322.407L221.043 322.73ZM198.817 300.504L199.122 297.505L190.699 296.649L196.686 302.635L198.817 300.504ZM205.983 302.172L204.795 304.943L204.818 304.953L204.841 304.962L205.983 302.172ZM236.09 120.764C238.657 118.197 241.326 115.92 244.096 113.927L240.576 109.033C237.527 111.226 234.611 113.717 231.827 116.501L236.09 120.764ZM228.406 129.979C230.593 126.774 233.152 123.702 236.09 120.764L231.827 116.501C228.64 119.688 225.838 123.048 223.426 126.581L228.406 129.979ZM223.785 130.412L263.618 170.245L267.881 165.982L228.047 126.149L223.785 130.412ZM262.735 163.564V168.114H268.764V163.564H262.735ZM271.974 142.063C265.974 148.813 262.735 155.996 262.735 163.564H268.764C268.764 157.85 271.177 152.034 276.48 146.068L271.974 142.063ZM272.366 141.635C272.234 141.775 272.103 141.918 271.974 142.063L276.48 146.068C276.57 145.967 276.66 145.868 276.752 145.771L272.366 141.635ZM276.691 141.571L244.468 109.349L240.205 113.611L272.428 145.834L276.691 141.571ZM317.265 153.189L319.806 150.647L315.543 146.385L313.002 148.926L317.265 153.189ZM319.928 150.519C321.38 148.884 322.385 146.93 322.385 144.701H316.356C316.356 145.016 316.23 145.605 315.422 146.514L319.928 150.519ZM322.385 144.701C322.385 142.626 321.576 140.689 320.356 138.946L315.417 142.403C316.176 143.486 316.356 144.233 316.356 144.701H322.385ZM320.533 139.231C318.914 136.263 315.753 135.329 312.588 135.329V141.357C314.793 141.357 315.164 141.977 315.241 142.118L320.533 139.231ZM312.588 135.329H302.42V141.357H312.588V135.329ZM263.351 103.537L300.288 140.474L304.551 136.212L267.614 99.2746L263.351 103.537ZM266.066 104.363C269.958 103.595 274.019 103.208 278.254 103.208V97.1796C273.65 97.1796 269.197 97.6006 264.899 98.4488L266.066 104.363ZM278.254 103.208H297.491V97.1796H278.254V103.208ZM295.359 102.325L349.155 156.121L353.418 151.858L299.622 98.0624L295.359 102.325ZM348.463 152.934C347.252 156.173 346.664 159.656 346.664 163.352H352.692C352.692 160.304 353.176 157.544 354.11 155.045L348.463 152.934ZM346.664 163.352V185.601H352.692V163.352H346.664ZM313.002 153.189L347.546 187.733L351.809 183.47L317.265 148.926L313.002 153.189ZM302.462 185.606C302.462 180.701 303.188 176.126 304.618 171.863L298.902 169.945C297.25 174.871 296.434 180.097 296.434 185.606H302.462ZM302.462 201.812V185.606H296.434V201.812H302.462ZM297.317 203.944L368.429 275.056L372.692 270.793L301.579 199.681L297.317 203.944ZM374.687 269.91H370.56V275.939H374.687V269.91ZM396.365 280.169C389.995 273.494 382.749 269.91 374.687 269.91V275.939C380.754 275.939 386.507 278.572 392.005 284.331L396.365 280.169ZM402.498 298.145C402.498 290.728 400.6 284.572 396.358 280.161L392.012 284.339C394.835 287.275 396.469 291.716 396.469 298.145H402.498ZM402.521 301.833C402.506 300.61 402.498 299.381 402.498 298.145H396.469C396.469 299.406 396.477 300.66 396.493 301.909L402.521 301.833ZM397.375 304.002L456.794 363.421L461.057 359.158L401.638 299.74L397.375 304.002ZM447.315 319.658C448.327 335.542 451.246 349.794 456.115 362.378L461.737 360.202C457.128 348.29 454.311 334.66 453.331 319.275L447.315 319.658ZM452.454 317.335L367.763 232.644L363.5 236.907L448.192 321.598L452.454 317.335ZM349.678 237.79H365.632V231.761H349.678V237.79ZM346.664 218.822V234.775H352.692V218.822H346.664ZM351.809 216.69L303.892 168.773L299.629 173.035L347.546 220.953L351.809 216.69ZM389.595 229.781L445.515 285.701L449.778 281.438L393.857 225.518L389.595 229.781ZM417.458 256.656C432.004 262.357 440.944 271.623 444.758 284.43L450.535 282.71C446.115 267.863 435.663 257.316 419.658 251.044L417.458 256.656ZM434.607 237.646C430.112 242.913 424.317 247.433 417.16 251.18L419.956 256.521C427.699 252.467 434.132 247.49 439.193 241.56L434.607 237.646ZM397.352 204.318L434.769 241.734L439.031 237.471L401.615 200.055L397.352 204.318ZM402.498 209.343V202.187H396.469V209.343H402.498ZM393.946 229.688C399.54 223.597 402.498 216.792 402.498 209.343H396.469C396.469 215.038 394.256 220.438 389.506 225.611L393.946 229.688ZM450.095 215.315L401.615 166.835L397.352 171.098L445.832 219.577L450.095 215.315ZM446.699 200.476C446.767 206.346 446.203 211.768 445.029 216.755L450.898 218.137C452.197 212.618 452.8 206.704 452.727 200.407L446.699 200.476ZM446.617 185.91L446.699 200.458L452.727 200.424L452.645 185.876L446.617 185.91ZM361.8 102.325L447.5 188.025L451.762 183.762L366.063 98.0624L361.8 102.325ZM330.711 103.208H363.932V97.1796H330.711V103.208ZM371.591 136.81L332.843 98.0624L328.58 102.325L367.328 141.073L371.591 136.81ZM374.263 135.541C372.438 135.541 370.669 135.682 368.959 135.969L369.959 141.914C371.315 141.686 372.749 141.569 374.263 141.569V135.541ZM396.389 145.824C389.988 138.965 382.565 135.38 374.205 135.541L374.321 141.569C380.655 141.447 386.514 144.079 391.982 149.937L396.389 145.824ZM402.498 163.564C402.498 156.268 400.589 150.192 396.358 145.791L392.012 149.969C394.845 152.916 396.469 157.296 396.469 163.564H402.498ZM402.498 168.966V163.564H396.469V168.966H402.498ZM450.741 149.52L399.979 98.7576L395.716 103.02L446.478 153.782L450.741 149.52ZM429.542 120.739C438.337 129.744 443.677 140.19 445.635 152.139L451.584 151.164C449.418 137.95 443.484 126.385 433.855 116.526L429.542 120.739ZM397.402 103.87C409.599 105.69 420.293 111.272 429.542 120.739L433.854 116.526C423.747 106.181 411.874 99.9344 398.292 97.9077L397.402 103.87ZM494.792 426.114L404.578 335.9L400.315 340.163L490.529 430.377L494.792 426.114ZM418.808 383.626C412.551 369.751 408.084 354.403 405.424 337.561L399.469 338.501C402.203 355.814 406.811 371.688 413.312 386.104L418.808 383.626ZM413.928 386.996L469.491 442.559L473.754 438.296L418.191 382.733L413.928 386.996ZM474.722 437.555C473.77 437.555 472.829 437.512 471.899 437.426L471.346 443.429C472.463 443.532 473.589 443.583 474.722 443.583V437.555ZM487.582 430.442C482.783 435.507 478.504 437.555 474.722 437.555V443.583C480.831 443.583 486.584 440.261 491.958 434.588L487.582 430.442ZM489.922 426.987C489.324 428.289 488.548 429.432 487.592 430.432L491.948 434.599C493.377 433.105 494.528 431.402 495.4 429.504L489.922 426.987ZM346.664 285.262V318.483H352.692V285.262H346.664ZM351.809 283.131L301.579 232.901L297.317 237.164L347.546 287.394L351.809 283.131ZM302.462 268.253V235.033H296.434V268.253H302.462ZM297.317 270.384L347.546 320.614L351.809 316.351L301.579 266.122L297.317 270.384ZM351.809 349.572L301.579 299.342L297.317 303.605L347.546 353.834L351.809 349.572ZM346.664 351.703V367.45H352.692V351.703H346.664ZM346.664 367.45C346.664 372.32 345.536 376.301 343.419 379.537L348.464 382.837C351.329 378.458 352.692 373.282 352.692 367.45H346.664ZM297.317 336.825L343.81 383.318L348.073 379.056L301.579 332.562L297.317 336.825ZM302.462 334.694V301.473H296.434V334.694H302.462ZM215.939 189.006L226.857 199.925L231.12 195.662L220.201 184.743L215.939 189.006ZM220.761 185.517C219.292 182.607 218.534 179.335 218.534 175.644H212.506C212.506 180.191 213.447 184.406 215.379 188.233L220.761 185.517ZM218.534 175.644V162.928H212.506V175.644H218.534ZM218.534 162.928C218.534 159.319 218.815 155.837 219.373 152.479L213.427 151.49C212.811 155.192 212.506 159.005 212.506 162.928H218.534ZM260.327 191.649L218.531 149.853L214.269 154.116L256.064 195.911L260.327 191.649ZM256.215 191.508C254.329 193.151 251.984 194.574 249.132 195.746L251.424 201.322C254.786 199.94 257.719 198.194 260.176 196.052L256.215 191.508ZM249.137 195.744C246.409 196.86 243.478 197.427 240.317 197.427V203.456C244.22 203.456 247.93 202.751 251.419 201.324L249.137 195.744ZM240.317 197.427C237.313 197.427 234.452 196.866 231.709 195.744L229.426 201.324C232.901 202.745 236.538 203.456 240.317 203.456V197.427ZM231.755 195.763C231.279 195.559 230.814 195.341 230.36 195.109L227.617 200.477C228.193 200.772 228.781 201.047 229.38 201.304L231.755 195.763ZM129.258 102.325L162.815 135.883L167.078 131.62L133.52 98.0624L129.258 102.325ZM131.389 103.208H152.362V97.1796H131.389V103.208ZM152.362 103.208C156.05 103.208 158.994 104.062 161.347 105.621C163.703 107.182 165.679 109.592 167.19 113.056L172.716 110.645C170.836 106.338 168.185 102.92 164.677 100.595C161.166 98.2688 157.011 97.1796 152.362 97.1796V103.208ZM167.166 112.998C167.948 114.897 168.422 117.64 168.422 121.388H174.451C174.451 117.223 173.936 113.608 172.74 110.703L167.166 112.998ZM168.422 121.388C168.422 124.317 167.087 127.409 163.795 130.701L168.058 134.964C172.113 130.909 174.451 126.371 174.451 121.388H168.422ZM163.795 130.701C163.52 130.976 163.241 131.237 162.958 131.486L166.935 136.017C167.318 135.68 167.692 135.329 168.058 134.964L163.795 130.701ZM138.449 136.212L103.509 101.272L99.2466 105.535L134.186 140.474L138.449 136.212ZM136.318 135.329H134.135V141.357H136.318V135.329ZM134.135 135.329C126.596 135.329 120.36 137.217 115.939 141.469L120.117 145.814C123.042 143.001 127.545 141.357 134.135 141.357V135.329ZM115.872 141.535C114.075 143.373 112.507 145.268 111.178 147.221L116.163 150.612C117.271 148.983 118.607 147.361 120.184 145.748L115.872 141.535ZM78.3334 117.842L111.539 151.048L115.802 146.785L82.5962 113.579L78.3334 117.842ZM82.4567 117.973C88.586 112.576 95.2149 108.685 102.349 106.257L100.407 100.55C92.468 103.252 85.1547 107.565 78.4729 113.448L82.4567 117.973ZM61.741 160.521C62.0644 151.347 64.2495 143.021 68.2669 135.493L62.9485 132.655C58.4708 141.044 56.0699 150.278 55.7163 160.309L61.741 160.521ZM111.046 208.47L60.8601 158.284L56.5973 162.547L106.783 212.732L111.046 208.47ZM105.9 177.381V210.601H111.929V177.381H105.9ZM111.046 175.249L67.7391 131.942L63.4763 136.205L106.783 179.512L111.046 175.249ZM308.934 382.636C304.7 378.643 302.562 373.783 302.466 367.869L296.438 367.967C296.561 375.487 299.366 381.9 304.798 387.022L308.934 382.636ZM316.061 387.337C313.304 386.21 310.961 384.661 308.997 382.697L304.735 386.96C307.293 389.518 310.318 391.502 313.778 392.917L316.061 387.337ZM323.876 389.218C321.209 389.118 318.646 388.51 316.167 387.383L313.672 392.871C316.855 394.318 320.188 395.112 323.651 395.242L323.876 389.218ZM325.895 390.098L301.583 365.787L297.32 370.049L321.632 394.361L325.895 390.098ZM56.5533 195.723L106.783 245.953L111.046 241.69L60.8161 191.46L56.5533 195.723ZM61.699 226.812V193.592H55.6705V226.812H61.699ZM111.046 274.91L60.8161 224.681L56.5533 228.943L106.783 279.173L111.046 274.91ZM105.9 243.821V277.042H111.929V243.821H105.9ZM170.966 337.922C172.929 334.388 174.027 330.863 174.027 327.393H167.998C167.998 329.574 167.308 332.093 165.696 334.995L170.966 337.922ZM174.027 327.393C174.027 322.506 174.646 318.938 175.691 316.5L170.15 314.125C168.651 317.621 167.998 322.107 167.998 327.393H174.027ZM175.691 316.5C176.34 314.984 177.132 313.581 178.064 312.287L173.172 308.764C171.976 310.425 170.969 312.214 170.15 314.125L175.691 316.5ZM173.487 312.657L213.66 352.83L217.923 348.567L177.75 308.394L173.487 312.657ZM213.034 349.48C209.964 356.43 205.844 362.478 200.672 367.65L204.935 371.912C210.65 366.197 215.188 359.524 218.549 351.917L213.034 349.48ZM200.672 367.65C200.488 367.834 200.303 368.017 200.118 368.198L204.333 372.508C204.535 372.311 204.735 372.112 204.935 371.912L200.672 367.65ZM204.357 368.221L170.463 334.327L166.2 338.59L200.094 372.484L204.357 368.221ZM56.5533 262.164L106.291 311.901L110.553 307.638L60.8161 257.901L56.5533 262.164ZM61.699 293.253V260.033H55.6705V293.253H61.699ZM99.9956 330.301L60.8161 291.122L56.5533 295.384L95.7328 334.564L99.9956 330.301ZM105.441 309.325C104.303 316.955 101.043 323.998 95.5616 330.487L100.167 334.378C106.309 327.107 110.087 319.042 111.403 310.214L105.441 309.325ZM115.502 353.085H148.123V347.056H115.502V353.085ZM148.123 353.085C148.342 353.085 148.559 353.083 148.775 353.079L148.659 347.051C148.482 347.055 148.304 347.056 148.123 347.056V353.085ZM146.586 352.196L180.204 385.814L184.466 381.551L150.849 347.934L146.586 352.196ZM181.186 380.896C174.244 383.759 166.696 385.206 158.508 385.206V391.234C167.422 391.234 175.758 389.656 183.484 386.469L181.186 380.896ZM158.508 385.206H153.652V391.234H158.508V385.206ZM155.783 386.088L117.634 347.939L113.371 352.202L151.52 390.351L155.783 386.088ZM56.5512 328.603L118.3 390.351L122.562 386.088L60.814 324.34L56.5512 328.603ZM53.5446 345.272C58.8764 340.253 61.6054 333.933 61.6966 326.508L55.6685 326.434C55.5969 332.263 53.5234 337.013 49.4129 340.882L53.5446 345.272ZM47.375 349.644C49.6564 348.441 51.7156 346.986 53.5403 345.276L49.4172 340.878C48.0036 342.203 46.3897 343.349 44.5632 344.312L47.375 349.644ZM89.3421 386.088L48.1005 344.847L43.8377 349.11L85.0793 390.351L89.3421 386.088ZM120.431 385.206H87.2107V391.234H120.431V385.206ZM18.7037 357.196L51.8589 390.351L56.1217 386.088L22.9665 352.933L18.7037 357.196ZM22.4948 357.672C22.6455 357.516 22.7961 357.363 22.9467 357.215L18.7234 352.914C18.5316 353.102 18.3413 353.294 18.1524 353.49L22.4948 357.672ZM18.0394 369.145C18.0394 364.509 19.5351 360.75 22.4964 357.67L18.1509 353.492C14.0475 357.759 12.0109 363.043 12.0109 369.145H18.0394ZM24.3304 381.818C19.9386 377.555 18.0394 373.345 18.0394 369.145H12.0109C12.0109 375.401 14.9157 381.081 20.1317 386.144L24.3304 381.818ZM33.6758 385.206C29.3215 385.206 26.388 383.98 24.4164 381.905L20.0458 386.057C23.4434 389.633 28.1396 391.234 33.6758 391.234V385.206ZM53.9903 385.206H33.6758V391.234H53.9903V385.206ZM223.175 320.599L200.949 298.372L196.686 302.635L218.912 324.861L223.175 320.599ZM198.512 303.503C201.175 303.773 203.243 304.278 204.795 304.943L207.17 299.402C204.889 298.424 202.18 297.816 199.122 297.505L198.512 303.503ZM204.841 304.962C207.598 306.09 209.942 307.639 211.905 309.602L216.168 305.339C213.61 302.781 210.584 300.798 207.124 299.382L204.841 304.962ZM211.905 309.602C215.377 313.075 217.447 317.501 218.047 323.053L224.04 322.407C223.308 315.625 220.707 309.878 216.168 305.339L211.905 309.602Z" fill="white" mask="url(#path-1-outside-1_9_241)"/>
</svg>
