<svg width="500" height="500" viewBox="0 0 500 500" fill="none" xmlns="http://www.w3.org/2000/svg">
<g filter="url(#filter0_d_18_176)">
<path fill-rule="evenodd" clip-rule="evenodd" d="M469.938 397.941L323.594 144.464L177.249 397.941L336.575 397.941V350.01C336.575 350.01 332.982 350.34 332.395 351L330.635 352.871C325.721 357.785 319.963 360.242 313.362 360.242C305.514 360.242 298.73 357.015 293.009 350.56C287.288 344.18 284.428 336.552 284.428 327.677V312.495C284.428 303.547 287.618 295.883 293.999 289.502C300.307 283.194 307.971 280.04 316.993 280.04H336.575V273.659C336.575 269.992 335.659 267.242 333.825 265.408C330.598 262.181 327.187 260.567 323.594 260.567H256.623L268.031 240.765H330.085C339.033 240.765 346.697 243.955 353.078 250.336C359.459 256.717 362.649 264.381 362.649 273.329L364.556 397.941L469.938 397.941ZM313.252 335.708C311.418 333.948 310.502 331.198 310.502 327.457V312.715C310.502 309.048 312.079 305.637 315.232 302.483C317.066 300.65 319.853 299.733 323.594 299.733H336.575V329.217C336.575 332.591 335.292 335.305 332.725 337.359C331.551 338.312 330.158 339.045 328.544 339.559C327.004 340.072 324.877 340.329 322.163 340.329C319.45 340.329 316.479 338.789 313.252 335.708Z" fill="white"/>
</g>
<g filter="url(#filter1_d_18_176)">
<path fill-rule="evenodd" clip-rule="evenodd" d="M31.0001 103L177.345 356.477L323.69 103L31.0001 103ZM244.316 240.373L177.345 240.373C173.751 240.373 170.341 238.76 167.113 235.533C165.28 233.699 164.363 230.949 164.363 227.281L164.363 220.9L183.946 220.9C192.967 220.9 200.632 217.747 206.939 211.439C213.32 205.058 216.511 197.394 216.511 188.446L216.511 173.264C216.511 164.389 213.65 156.761 207.929 150.38C202.209 143.926 195.424 140.699 187.576 140.699C180.975 140.699 175.218 143.156 170.304 148.07L168.544 149.94C167.957 150.6 164.363 150.93 164.363 150.93L164.363 103L136.383 103L138.289 227.611C138.289 236.559 141.48 244.224 147.861 250.605C154.242 256.986 161.906 260.176 170.854 260.176L232.908 260.176L244.316 240.373ZM187.686 165.232C189.52 166.993 190.437 169.743 190.437 173.484L190.437 188.226C190.437 191.893 188.86 195.303 185.706 198.457C183.873 200.291 181.085 201.208 177.345 201.208L164.363 201.208L164.363 171.723C164.363 168.35 165.647 165.636 168.214 163.582C169.387 162.629 170.781 161.895 172.394 161.382C173.934 160.868 176.061 160.612 178.775 160.612C181.489 160.612 184.459 162.152 187.686 165.232Z" fill="white"/>
</g>
<defs>
<filter id="filter0_d_18_176" x="158.249" y="129.464" width="330.69" height="291.477" filterUnits="userSpaceOnUse" color-interpolation-filters="sRGB">
<feFlood flood-opacity="0" result="BackgroundImageFix"/>
<feColorMatrix in="SourceAlpha" type="matrix" values="0 0 0 0 0 0 0 0 0 0 0 0 0 0 0 0 0 0 127 0" result="hardAlpha"/>
<feOffset dy="4"/>
<feGaussianBlur stdDeviation="9.5"/>
<feComposite in2="hardAlpha" operator="out"/>
<feColorMatrix type="matrix" values="0 0 0 0 0 0 0 0 0 0 0 0 0 0 0 0 0 0 0.25 0"/>
<feBlend mode="normal" in2="BackgroundImageFix" result="effect1_dropShadow_18_176"/>
<feBlend mode="normal" in="SourceGraphic" in2="effect1_dropShadow_18_176" result="shape"/>
</filter>
<filter id="filter1_d_18_176" x="12.0001" y="88" width="330.69" height="291.477" filterUnits="userSpaceOnUse" color-interpolation-filters="sRGB">
<feFlood flood-opacity="0" result="BackgroundImageFix"/>
<feColorMatrix in="SourceAlpha" type="matrix" values="0 0 0 0 0 0 0 0 0 0 0 0 0 0 0 0 0 0 127 0" result="hardAlpha"/>
<feOffset dy="4"/>
<feGaussianBlur stdDeviation="9.5"/>
<feComposite in2="hardAlpha" operator="out"/>
<feColorMatrix type="matrix" values="0 0 0 0 0 0 0 0 0 0 0 0 0 0 0 0 0 0 0.25 0"/>
<feBlend mode="normal" in2="BackgroundImageFix" result="effect1_dropShadow_18_176"/>
<feBlend mode="normal" in="SourceGraphic" in2="effect1_dropShadow_18_176" result="shape"/>
</filter>
</defs>
</svg>
