<svg width="500" height="500" viewBox="0 0 500 500" fill="none" xmlns="http://www.w3.org/2000/svg">
<path fill-rule="evenodd" clip-rule="evenodd" d="M129.071 47.3348C99.9799 47.3348 76.3875 57.0553 76.31 69.0585H76V191.706H76.0027C76.0188 192.366 76.1053 193.019 76.2592 193.663H76L129.06 305.492L155.693 249.36L85.2734 198.198H179.969L180.953 196.124C181.089 195.863 181.213 195.601 181.326 195.336L182.12 193.663H181.884C182.037 193.019 182.124 192.366 182.14 191.706H182.143L182.143 191.48L182.143 69.0585H181.833C181.755 57.0553 158.163 47.3348 129.071 47.3348ZM300.397 198.198H288.764L249.901 78.5889L211.037 198.198H198.58L196.429 193.663H196.688C196.534 193.019 196.447 192.366 196.431 191.706H196.429V69.0585H196.739C196.816 57.0553 220.409 47.3348 249.5 47.3348C278.591 47.3348 302.184 57.0553 302.261 69.0585H302.571V191.48V191.706H302.569C302.553 192.366 302.466 193.019 302.312 193.663H302.549L301.755 195.336C301.642 195.601 301.517 195.863 301.381 196.124L300.397 198.198ZM343.495 249.806L414.528 198.198H319.009L316.857 193.663H317.116C316.963 193.019 316.876 192.366 316.86 191.706H316.857V69.0585H317.167C317.245 57.0553 340.837 47.3348 369.929 47.3348C399.02 47.3348 422.612 57.0553 422.69 69.0585H423V191.48V191.706H422.997C422.981 192.366 422.895 193.019 422.741 193.663H422.977L422.184 195.336C422.07 195.601 421.946 195.863 421.81 196.124L369.917 305.492L343.495 249.806ZM257.326 323.201L351.646 391.729L312.783 272.12L332.339 257.911L363.382 323.337H363.123C363.276 323.981 363.363 324.634 363.379 325.294H363.382V447.942H363.072C362.994 459.945 339.402 469.665 310.31 469.665C281.219 469.665 257.627 459.945 257.549 447.942H257.239L257.239 325.294H257.242C257.258 324.634 257.344 323.981 257.498 323.337H257.262L257.326 323.201ZM167.77 258.135L187.019 272.12L148.155 391.729L242.783 322.978L242.953 323.337H242.694C242.848 323.981 242.934 324.634 242.951 325.294H242.953L242.953 447.942H242.643C242.566 459.945 218.973 469.665 189.882 469.665C160.79 469.665 137.198 459.945 137.12 447.942H136.81L136.81 325.294H136.813C136.829 324.634 136.916 323.981 137.07 323.337H136.833L137.627 321.664C137.74 321.399 137.865 321.137 138.001 320.876L167.77 258.135Z" fill="white"/>
</svg>
