<svg width="500" height="500" viewBox="0 0 500 500" fill="none" xmlns="http://www.w3.org/2000/svg">
<path d="M71 282H341V345H112.5C89.5802 345 71 326.42 71 303.5V282Z" fill="#DDDDDD"/>
<path d="M429 217L159 217L159 154L387.5 154C410.42 154 429 172.58 429 195.5L429 217Z" fill="#DDDDDD"/>
<path d="M71 195.5C71 172.58 89.5802 154 112.5 154H341V217H71V195.5Z" fill="#DDDDDD"/>
<path d="M429 303.5C429 326.42 410.42 345 387.5 345L159 345L159 282L429 282L429 303.5Z" fill="#DDDDDD"/>
<path d="M134 154L134 345L112.5 345C89.5802 345 71 326.42 71 303.5L71 195.5C71 172.58 89.5802 154 112.5 154L134 154Z" fill="#DDDDDD"/>
<path d="M366 345L366 154L387.5 154C410.42 154 429 172.58 429 195.5L429 303.5C429 326.42 410.42 345 387.5 345L366 345Z" fill="#DDDDDD"/>
<path d="M214 75L214 345L151 345L151 116.5C151 93.5802 169.58 75 192.5 75L214 75Z" fill="#505050"/>
<path d="M278 424L278 154L341 154L341 382.5C341 405.42 322.42 424 299.5 424L278 424Z" fill="#505050"/>
<path d="M299.5 75C322.42 75 341 93.5802 341 116.5L341 345L278 345L278 75L299.5 75Z" fill="#505050"/>
<path d="M192.5 424C169.58 424 151 405.42 151 382.5L151 154L214 154L214 424L192.5 424Z" fill="#505050"/>
<path d="M341 138L151 138L151 116.5C151 93.5802 169.58 75 192.5 75L299.5 75C322.42 75 341 93.5802 341 116.5L341 138Z" fill="#505050"/>
<path d="M151 361L341 361L341 382.5C341 405.42 322.42 424 299.5 424L192.5 424C169.58 424 151 405.42 151 382.5L151 361Z" fill="#505050"/>
<rect x="136" y="154" width="92" height="63" fill="#DDDDDD"/>
<rect x="364" y="345" width="92" height="63" transform="rotate(-180 364 345)" fill="#DDDDDD"/>
<rect x="248" y="282" width="93" height="63" fill="#DDDDDD"/>
</svg>
