<svg width="13" height="11" viewBox="0 0 13 11" fill="none" xmlns="http://www.w3.org/2000/svg">
<path fill-rule="evenodd" clip-rule="evenodd" d="M0 0H13V11H0V0ZM12.1334 2.53846C12.1334 3.4731 11.3573 4.23077 10.4 4.23077C9.44273 4.23077 8.66669 3.4731 8.66669 2.53846C8.66669 1.60383 9.44273 0.846156 10.4 0.846156C11.3573 0.846156 12.1334 1.60383 12.1334 2.53846ZM4.3333 5.92402C2.93825 5.89014 0.866638 6.76998 0.866638 6.76998V10.1538H12.1333V6.76998C12.1333 6.76998 10.0617 7.64982 8.66664 7.61594C7.7556 7.59382 7.12779 7.1819 6.49997 6.76998C5.87216 6.35806 5.24434 5.94614 4.3333 5.92402Z" fill="black"/>
</svg>
